<svg width="2129" height="360" viewBox="0 0 2129 360" fill="none" xmlns="http://www.w3.org/2000/svg">
<path d="M189.6 64.3998C186.133 58.2665 183.067 53.0665 180.4 48.7998C177.733 44.2665 175.467 40.6665 173.6 37.9998C166.4 28.1331 158.933 21.7331 151.2 18.7998C146.667 17.1998 141.6 16.3998 136 16.3998C127.467 16.3998 120.133 19.3331 114 25.1998C107.867 30.7998 104.8 37.7331 104.8 45.9998C104.8 60.9331 114.933 71.9998 135.2 79.1998L206 104C206.533 104.266 207.067 104.533 207.6 104.8C208.133 104.8 208.933 105.066 210 105.6L244.8 61.9998L252 67.5998L219.6 108.4C250 120.133 265.2 140.4 265.2 169.2C265.2 195.333 253.067 217.733 228.8 236.4L176 276.8C153.333 257.866 133.2 245.333 115.6 239.2L61.2 307.6C49.7333 322.266 38.9333 329.6 28.8 329.6C19.4667 329.6 12.2667 326.4 7.2 320C2.4 314.133 -2.5034e-06 306.533 -2.5034e-06 297.2C-2.5034e-06 281.466 12.1333 260.933 36.4 235.6C51.8667 218.8 76.5333 210.4 110.4 210.4C114.4 210.4 119.467 210.8 125.6 211.6L158.4 170.4C128 161.6 104.8 151.733 88.8 140.8C73.6 130.133 66 112 66 86.3998C66 74.1331 67.7333 61.8665 71.2 49.5998H80C79.7333 55.1998 79.4667 59.5998 79.2 62.7998C79.2 65.7331 79.2 67.4665 79.2 67.9998C79.2 89.0665 87.7333 104.533 104.8 114.4C113.333 119.466 123.733 124.533 136 129.6C148.267 134.4 162.8 139.066 179.6 143.6L189.6 131.2C155.2 121.6 129.733 112.4 113.2 103.6C96.6667 94.2665 88.4 78.9331 88.4 57.5998C88.4 40.7998 95.7333 26.7998 110.4 15.5998C124 5.19979 139.467 -0.000217438 156.8 -0.000217438C182.4 -0.000217438 201.867 10.2665 215.2 30.7998L225.2 23.1998L231.2 30.7998L189.6 64.3998ZM88.4 234.4C70.2667 234.4 53.0667 240.4 36.8 252.4C18.6667 265.2 9.6 280.133 9.6 297.2C9.6 312.666 15.8667 320.4 28.4 320.4C35.0667 320.4 42.2667 315.6 50 306L106 236.4C99.8667 235.066 94 234.4 88.4 234.4ZM199.6 245.6C204.133 242.133 209.467 237.866 215.6 232.8C221.733 227.466 228.667 221.2 236.4 214C243.333 206.266 246.8 196 246.8 183.2C246.8 161.333 231.067 145.2 199.6 134.8L189.6 146.8C196.8 148.933 202.8 151.066 207.6 153.2C212.4 155.066 216.133 156.8 218.8 158.4C227.867 164.266 232.4 172.933 232.4 184.4C232.4 192.4 228.933 200.533 222 208.8C220.667 210.133 218.267 212.533 214.8 216C211.6 219.2 207.333 223.333 202 228.4L196 221.6C207.2 212.533 212.8 204.933 212.8 198.8C212.8 192.666 206.8 187.2 194.8 182.4C190.267 181.066 185.733 179.6 181.2 178C176.933 176.4 172.533 174.933 168 173.6L136.4 213.6C156.933 217.866 178 228.533 199.6 245.6ZM287.816 253.2L310.216 234.4V138.4H293.816L287.816 152.4L279.416 148.8L287.816 127.6C291.549 119.066 296.082 114.8 301.416 114.8H310.216V61.1998L349.016 28.3998L355.016 35.5998L338.216 50.3998V114.8H361.416L367.016 102.4L375.416 106L366.616 128C363.682 134.933 357.816 138.4 349.016 138.4H338.216V237.6L346.616 245.6L360.616 233.6L366.616 240.8L330.216 271.2L306.616 249.6L293.816 260.4L287.816 253.2ZM459.556 234.8L417.156 271.2C393.956 266.133 382.356 254.533 382.356 236.4C382.356 223.333 388.356 211.2 400.356 200L424.756 177.2C403.69 155.333 393.156 140.666 393.156 133.2C393.156 121.733 398.89 116 410.356 116C414.89 116 418.756 117.6 421.956 120.8C425.423 123.733 427.156 127.6 427.156 132.4C427.156 142.266 421.956 147.733 411.556 148.8L413.556 151.2C437.023 145.066 454.89 132.933 467.156 114.8L489.156 136.8L502.756 126.4L508.756 133.6L487.556 150.8V215.2C487.556 226.933 490.09 236.266 495.156 243.2L506.356 234L512.356 241.2L474.756 271.2C464.623 260.266 459.556 248.133 459.556 234.8ZM459.556 222.4V152.8L451.156 145.2C442.09 151.066 431.956 155.6 420.756 158.8L448.356 189.6L441.156 196L430.756 184.4C428.09 187.066 425.423 189.6 422.756 192C420.09 194.4 417.423 196.933 414.756 199.6C408.356 206.533 405.156 212.933 405.156 218.8C405.156 222 405.956 225.2 407.556 228.4C409.423 231.6 411.69 234.533 414.356 237.2C417.023 239.6 419.956 241.6 423.156 243.2C426.623 244.533 429.956 245.2 433.156 245.2L459.556 222.4ZM527.641 253.2L548.041 234.8V172C548.041 160 545.241 150.8 539.641 144.4L528.041 154L522.041 146.8L559.241 114.8C569.107 126.266 574.707 136.8 576.041 146.4L599.241 114.8C611.241 131.866 619.107 140.4 622.841 140.4C624.707 140.4 626.574 139.066 628.441 136.4C629.241 135.333 630.041 134.266 630.841 133.2C631.641 132.133 632.441 131.066 633.241 130L640.841 135.6C632.307 147.333 628.041 153.2 628.041 153.2C621.907 159.6 615.907 162.8 610.041 162.8C602.841 162.8 594.841 158 586.041 148.4L576.041 162V234.4L594.441 247.2L611.641 235.2L617.241 242.8L576.041 271.2L544.841 249.6L533.641 260L527.641 253.2ZM643.181 253.6L665.581 234.8V55.1998C665.581 47.4665 664.381 37.3331 661.981 24.7998L669.981 22.3998L674.781 49.1998C679.048 34.5331 687.048 22.1331 698.781 11.9998L704.381 17.1998C697.181 26.5331 693.581 40.1331 693.581 57.9998V143.2L733.581 114.8L767.981 158.8L733.581 182.4C742.115 186.933 749.315 196.8 755.181 212C761.581 228.266 767.448 238.266 772.781 242L781.581 234.4L787.581 241.6L751.981 271.2C745.848 265.066 739.848 252.4 733.981 233.2C728.381 214.266 721.848 201.866 714.381 196L693.581 210.4V234L703.981 244L712.381 236.4L718.381 243.6L685.181 271.2L662.781 249.2L649.181 260.8L643.181 253.6ZM739.181 166.8L716.381 138L693.581 154.8V198.8L739.181 166.8ZM953.828 360C931.695 360 913.828 352.533 900.228 337.6C886.361 322.933 879.428 304.533 879.428 282.4C879.428 264.533 884.895 247.466 895.828 231.2C907.295 213.6 922.095 204.8 940.228 204.8C952.495 204.8 967.828 212.8 986.228 228.8C1004.89 244.533 1016.23 252.4 1020.23 252.4C1025.29 252.4 1029.83 250 1033.83 245.2V52.3998L1097.83 -0.000217438C1105.29 13.5998 1112.89 20.3998 1120.63 20.3998C1125.96 20.3998 1135.43 15.1998 1149.03 4.79979L1154.63 12.3998C1130.89 32.6665 1114.36 42.7998 1105.03 42.7998C1105.03 42.7998 1104.09 42.6665 1102.23 42.3998C1100.36 42.1331 1097.56 41.7331 1093.83 41.1998V120H1127.43L1093.83 146.8V337.6L1097.83 343.2L1077.83 360L1067.03 346.4L1084.63 332.4V150H1064.23V235.6C1059.16 239.866 1054.09 244 1049.03 248C1044.23 252 1039.29 256.133 1034.23 260.4C1021.69 269.2 1009.83 273.6 998.628 273.6C989.828 273.6 976.895 267.466 959.828 255.2C943.295 242.933 932.095 236.8 926.228 236.8C915.028 236.8 905.828 242.4 898.628 253.6C892.761 262.666 889.828 273.466 889.828 286C889.828 304.133 896.095 319.466 908.628 332C920.895 344.8 936.095 351.2 954.228 351.2C959.295 351.2 964.361 350.666 969.428 349.6V358C963.561 359.333 958.361 360 953.828 360ZM1084.63 120V38.7998C1080.09 36.6665 1076.36 34.2665 1073.43 31.5998L1064.23 38.7998V120H1084.63ZM986.628 210.4V147.6C983.695 145.2 980.761 144 977.828 144C973.295 144 969.428 145.866 966.228 149.6C963.295 153.066 961.828 157.2 961.828 162C961.828 164.4 962.628 167.6 964.228 171.6L954.228 175.6C951.561 167.333 950.228 159.466 950.228 152C950.228 129.066 962.361 117.6 986.628 117.6V74.7998L1017.03 50.3998L1023.03 57.5998L1017.03 62.3998V197.6L986.628 222.4L981.028 214.8L986.628 210.4ZM926.228 46.7998C926.228 35.8665 930.495 25.3331 939.028 15.1998C947.561 5.06646 957.428 -0.000217438 968.628 -0.000217438C975.561 -0.000217438 985.428 2.13312 998.228 6.3998C1013.43 11.4665 1021.56 13.9998 1022.63 13.9998C1029.29 13.9998 1036.76 10.6665 1045.03 3.9998L1050.63 10.3998C1043.16 16.2665 1037.56 20.7998 1033.83 23.9998C1030.09 26.9331 1027.96 28.6665 1027.43 29.1998C1017.29 36.6665 1008.36 40.3998 1000.63 40.3998C995.561 40.3998 987.695 38.5331 977.028 34.7998C966.628 31.0665 959.295 29.1998 955.028 29.1998C949.695 29.1998 945.295 31.1998 941.828 35.1998C938.628 38.9331 937.028 43.4665 937.028 48.7998C937.028 59.7331 942.228 69.3331 952.628 77.5998L945.828 83.9998C932.761 71.7331 926.228 59.3331 926.228 46.7998ZM1167.93 152L1157.13 142.8L1144.73 153.6L1139.13 146.4L1175.13 114.8L1197.53 135.2L1209.93 125.2L1215.93 132L1195.93 150V216.4C1195.93 228.933 1199 237.466 1205.13 242L1215.53 232.8L1221.53 240L1185.53 271.2C1173.8 262.666 1167.93 248.533 1167.93 228.8V152ZM1157.93 72.7998L1149.53 79.9998L1143.53 72.7998L1175.93 44.7998L1198.33 64.7998L1206.33 57.9998L1212.33 65.1998L1180.73 93.1998L1157.93 72.7998ZM1235.47 253.6L1256.67 236V170.4C1256.67 156.8 1254.27 147.6 1249.47 142.8L1237.47 153.2L1231.47 146L1268.27 114.8C1275.74 120.666 1280.54 127.333 1282.67 134.8C1284.01 140.133 1284.67 148.4 1284.67 159.6L1336.27 114.8L1358.27 134.8L1370.67 124.4L1376.67 131.6L1355.87 149.2V215.6C1355.87 228.933 1358.27 238 1363.07 242.8L1373.87 233.6L1379.87 240.8L1344.27 271.2C1333.34 261.6 1327.87 247.2 1327.87 228V150.8L1318.27 142.8L1284.67 172V236.4L1293.07 244.8L1303.47 236.4L1309.47 243.6L1277.07 271.2L1254.67 250L1241.47 260.8L1235.47 253.6ZM1470.88 234.8L1428.48 271.2C1405.28 266.133 1393.68 254.533 1393.68 236.4C1393.68 223.333 1399.68 211.2 1411.68 200L1436.08 177.2C1415.02 155.333 1404.48 140.666 1404.48 133.2C1404.48 121.733 1410.22 116 1421.68 116C1426.22 116 1430.08 117.6 1433.28 120.8C1436.75 123.733 1438.48 127.6 1438.48 132.4C1438.48 142.266 1433.28 147.733 1422.88 148.8L1424.88 151.2C1448.35 145.066 1466.22 132.933 1478.48 114.8L1500.48 136.8L1514.08 126.4L1520.08 133.6L1498.88 150.8V215.2C1498.88 226.933 1501.42 236.266 1506.48 243.2L1517.68 234L1523.68 241.2L1486.08 271.2C1475.95 260.266 1470.88 248.133 1470.88 234.8ZM1470.88 222.4V152.8L1462.48 145.2C1453.42 151.066 1443.28 155.6 1432.08 158.8L1459.68 189.6L1452.48 196L1442.08 184.4C1439.42 187.066 1436.75 189.6 1434.08 192C1431.42 194.4 1428.75 196.933 1426.08 199.6C1419.68 206.533 1416.48 212.933 1416.48 218.8C1416.48 222 1417.28 225.2 1418.88 228.4C1420.75 231.6 1423.02 234.533 1425.68 237.2C1428.35 239.6 1431.28 241.6 1434.48 243.2C1437.95 244.533 1441.28 245.2 1444.48 245.2L1470.88 222.4ZM1539.77 253.6L1560.97 236V170.4C1560.97 156.8 1558.57 147.6 1553.77 142.8L1541.77 153.2L1535.77 146L1572.57 114.8C1580.04 120.666 1584.84 127.333 1586.97 134.8C1588.3 140.133 1588.97 148.4 1588.97 159.6L1640.57 114.8L1662.57 134.8L1674.97 124.4L1680.97 131.6L1660.17 149.2V215.6C1660.17 228.933 1662.57 238 1667.37 242.8L1678.17 233.6L1684.17 240.8L1648.57 271.2C1637.64 261.6 1632.17 247.2 1632.17 228V150.8L1622.57 142.8L1588.97 172V236.4L1597.37 244.8L1607.77 236.4L1613.77 243.6L1581.37 271.2L1558.97 250L1545.77 260.8L1539.77 253.6ZM1698.38 254L1718.78 236.4V150.4C1716.11 150.666 1714.11 150.8 1712.78 150.8C1711.71 150.8 1711.18 150.8 1711.18 150.8C1711.18 150.8 1710.25 150.8 1708.38 150.8C1706.78 150.533 1704.25 150.266 1700.78 150V140.8C1735.98 140.8 1761.05 132.133 1775.98 114.8C1782.65 133.466 1788.38 142.8 1793.18 142.8C1797.45 142.8 1802.51 137.866 1808.38 128L1815.98 133.6C1803.18 155.466 1791.58 166.4 1781.18 166.4C1775.58 166.4 1770.38 163.6 1765.58 158C1764.25 156.133 1760.78 150.8 1755.18 142L1746.78 144.8V231.2L1767.98 246L1802.38 223.2L1807.58 230.8L1747.18 271.2L1718.38 250.4L1704.38 261.6L1698.38 254ZM1838.64 152L1827.84 142.8L1815.44 153.6L1809.84 146.4L1845.84 114.8L1868.24 135.2L1880.64 125.2L1886.64 132L1866.64 150V216.4C1866.64 228.933 1869.7 237.466 1875.84 242L1886.24 232.8L1892.24 240L1856.24 271.2C1844.5 262.666 1838.64 248.533 1838.64 228.8V152ZM1828.64 72.7998L1820.24 79.9998L1814.24 72.7998L1846.64 44.7998L1869.04 64.7998L1877.04 57.9998L1883.04 65.1998L1851.44 93.1998L1828.64 72.7998ZM1983.78 234.8L1941.38 271.2C1918.18 266.133 1906.58 254.533 1906.58 236.4C1906.58 223.333 1912.58 211.2 1924.58 200L1948.98 177.2C1927.91 155.333 1917.38 140.666 1917.38 133.2C1917.38 121.733 1923.11 116 1934.58 116C1939.11 116 1942.98 117.6 1946.18 120.8C1949.64 123.733 1951.38 127.6 1951.38 132.4C1951.38 142.266 1946.18 147.733 1935.78 148.8L1937.78 151.2C1961.24 145.066 1979.11 132.933 1991.38 114.8L2013.38 136.8L2026.98 126.4L2032.98 133.6L2011.78 150.8V215.2C2011.78 226.933 2014.31 236.266 2019.38 243.2L2030.58 234L2036.58 241.2L1998.98 271.2C1988.84 260.266 1983.78 248.133 1983.78 234.8ZM1983.78 222.4V152.8L1975.38 145.2C1966.31 151.066 1956.18 155.6 1944.98 158.8L1972.58 189.6L1965.38 196L1954.98 184.4C1952.31 187.066 1949.64 189.6 1946.98 192C1944.31 194.4 1941.64 196.933 1938.98 199.6C1932.58 206.533 1929.38 212.933 1929.38 218.8C1929.38 222 1930.18 225.2 1931.78 228.4C1933.64 231.6 1935.91 234.533 1938.58 237.2C1941.24 239.6 1944.18 241.6 1947.38 243.2C1950.84 244.533 1954.18 245.2 1957.38 245.2L1983.78 222.4ZM2048.66 253.2L2071.46 234V55.5998C2071.46 48.1331 2069.99 38.5331 2067.06 26.7998L2075.86 23.9998C2077.19 29.8665 2078.26 35.0665 2079.06 39.5998C2079.86 44.1331 2080.53 47.9998 2081.06 51.1998C2084.79 38.9331 2093.19 25.8665 2106.26 11.9998L2112.66 17.1998C2103.86 28.9331 2099.46 42.6665 2099.46 58.3998V235.6L2108.66 244.4L2121.86 232.4L2128.26 239.2L2091.46 271.2L2068.66 249.6L2055.06 260.8L2048.66 253.2Z" fill="white"/>
</svg>
